<svg width="850" height="860" viewBox="0 0 850 860" fill="none" xmlns="http://www.w3.org/2000/svg">
<path d="M386.42 201.38C385 158.75 404.19 116 423.45 79C432.27 62.06 441.93 45.56 452.24 29.49C458.77 19.3 463.67 6.18002 477.02 4.13002C484.77 2.95002 495.11 4.13002 499.44 11.63C503.77 19.13 499 27 495.88 33.86C489.68 47.6 483.53 61.38 477.88 75.34C465.59 105.46 450.51 141.73 455 175C456.37 185.18 460.29 195.2 468.87 201.4C468.85 201.38 387 219.29 386.42 201.38Z" fill="#0DB528"/>
<path d="M458.05 209.34C458.05 209.34 500.87 208.1 552.26 139.58C603.65 71.06 657.89 86.77 657.89 86.77C657.89 86.77 615.07 63.93 530.89 122.45C446.71 180.97 458.05 209.34 458.05 209.34Z" fill="#0C8E1B"/>
<path d="M288.9 0.280029C288.9 0.280029 307.46 141.6 407.38 187.28L368.84 212.78C368.84 212.78 286.05 100.2 288.9 0.280029Z" fill="#0C961D"/>
<path d="M849.93 470.59C849.93 719.79 659.68 859.72 425 859.72C190.32 859.72 0.0700073 719.79 0.0700073 470.59C0.0700073 323.49 66.36 231.24 168.94 180.33C203.8 162.953 242.608 155.023 281.49 157.33C323.41 159.77 359.18 176.2 399.49 185.26C452.49 197.2 503.88 176.01 555.87 168.83C613.87 160.83 677.24 172.68 725.53 206.66C802.37 260.75 849.93 346 849.93 470.59Z" fill="#E22A1B"/>
</svg>
